STARTFONT 2.1
COMMENT Exported by Fony v1.4.7
FONT Untitled
SIZE 12 96 96
FONTBOUNDINGBOX 9 11 0 -3
STARTPROPERTIES 6
COPYRIGHT "Created with Fony 1.4.7"
RESOLUTION_X 96
RESOLUTION_Y 96
FONT_ASCENT 9
FONT_DESCENT 3
DEFAULT_CHAR 0
ENDPROPERTIES
CHARS 224
STARTCHAR 032
ENCODING 32
SWIDTH 648 0
DWIDTH 9 0
BBX 0 0 0 0
BITMAP
ENDCHAR
STARTCHAR 033
ENCODING 33
SWIDTH 648 0
DWIDTH 9 0
BBX 1 9 4 0
BITMAP
80
80
80
80
80
80
80
00
80
ENDCHAR
STARTCHAR 034
ENCODING 34
SWIDTH 648 0
DWIDTH 9 0
BBX 5 3 2 5
BITMAP
88
88
88
ENDCHAR
STARTCHAR 035
ENCODING 35
SWIDTH 648 0
DWIDTH 9 0
BBX 8 9 1 0
BITMAP
12
12
7F
24
24
24
FE
48
48
ENDCHAR
STARTCHAR 036
ENCODING 36
SWIDTH 648 0
DWIDTH 9 0
BBX 5 11 2 -2
BITMAP
20
70
A8
A0
A0
70
28
28
A8
70
20
ENDCHAR
STARTCHAR 037
ENCODING 37
SWIDTH 648 0
DWIDTH 9 0
BBX 8 10 0 -1
BITMAP
61
92
94
64
08
10
26
29
49
86
ENDCHAR
STARTCHAR 038
ENCODING 38
SWIDTH 648 0
DWIDTH 9 0
BBX 8 9 0 0
BITMAP
30
48
48
30
72
8C
8C
8A
71
ENDCHAR
STARTCHAR 039
ENCODING 39
SWIDTH 648 0
DWIDTH 9 0
BBX 1 4 4 4
BITMAP
80
80
80
80
ENDCHAR
STARTCHAR 040
ENCODING 40
SWIDTH 648 0
DWIDTH 9 0
BBX 4 11 2 -2
BITMAP
10
20
40
40
80
80
80
40
40
20
10
ENDCHAR
STARTCHAR 041
ENCODING 41
SWIDTH 648 0
DWIDTH 9 0
BBX 4 11 3 -2
BITMAP
80
40
20
20
10
10
10
20
20
40
80
ENDCHAR
STARTCHAR 042
ENCODING 42
SWIDTH 648 0
DWIDTH 9 0
BBX 5 5 2 4
BITMAP
20
A8
70
20
50
ENDCHAR
STARTCHAR 043
ENCODING 43
SWIDTH 648 0
DWIDTH 9 0
BBX 7 7 1 1
BITMAP
10
10
10
FE
10
10
10
ENDCHAR
STARTCHAR 044
ENCODING 44
SWIDTH 648 0
DWIDTH 9 0
BBX 2 4 3 -2
BITMAP
C0
C0
40
80
ENDCHAR
STARTCHAR 045
ENCODING 45
SWIDTH 648 0
DWIDTH 9 0
BBX 7 1 1 4
BITMAP
FE
ENDCHAR
STARTCHAR 046
ENCODING 46
SWIDTH 648 0
DWIDTH 9 0
BBX 2 2 3 0
BITMAP
C0
C0
ENDCHAR
STARTCHAR 047
ENCODING 47
SWIDTH 648 0
DWIDTH 9 0
BBX 5 11 2 -2
BITMAP
08
08
10
10
20
20
20
40
40
80
80
ENDCHAR
STARTCHAR 048
ENCODING 48
SWIDTH 648 0
DWIDTH 9 0
BBX 6 9 2 0
BITMAP
78
8C
8C
94
94
A4
A4
C4
78
ENDCHAR
STARTCHAR 049
ENCODING 49
SWIDTH 648 0
DWIDTH 9 0
BBX 4 9 2 0
BITMAP
10
30
50
90
10
10
10
10
10
ENDCHAR
STARTCHAR 050
ENCODING 50
SWIDTH 648 0
DWIDTH 9 0
BBX 5 9 2 0
BITMAP
70
88
88
08
10
20
40
80
F8
ENDCHAR
STARTCHAR 051
ENCODING 51
SWIDTH 648 0
DWIDTH 9 0
BBX 5 9 2 0
BITMAP
F8
08
10
20
70
08
08
88
70
ENDCHAR
STARTCHAR 052
ENCODING 52
SWIDTH 648 0
DWIDTH 9 0
BBX 6 9 1 0
BITMAP
08
18
28
48
48
88
FC
08
08
ENDCHAR
STARTCHAR 053
ENCODING 53
SWIDTH 648 0
DWIDTH 9 0
BBX 5 9 2 0
BITMAP
F8
80
80
F0
08
08
08
08
F0
ENDCHAR
STARTCHAR 054
ENCODING 54
SWIDTH 648 0
DWIDTH 9 0
BBX 5 9 2 0
BITMAP
70
88
80
80
F0
88
88
88
70
ENDCHAR
STARTCHAR 055
ENCODING 55
SWIDTH 648 0
DWIDTH 9 0
BBX 7 9 1 0
BITMAP
FE
04
08
08
3C
10
20
20
40
ENDCHAR
STARTCHAR 056
ENCODING 56
SWIDTH 648 0
DWIDTH 9 0
BBX 5 9 2 0
BITMAP
70
88
88
88
70
88
88
88
70
ENDCHAR
STARTCHAR 057
ENCODING 57
SWIDTH 648 0
DWIDTH 9 0
BBX 5 9 2 0
BITMAP
70
88
88
88
78
08
08
88
70
ENDCHAR
STARTCHAR 058
ENCODING 58
SWIDTH 648 0
DWIDTH 9 0
BBX 2 7 3 1
BITMAP
C0
C0
00
00
00
C0
C0
ENDCHAR
STARTCHAR 059
ENCODING 59
SWIDTH 648 0
DWIDTH 9 0
BBX 2 9 3 -1
BITMAP
C0
C0
00
00
00
C0
C0
40
80
ENDCHAR
STARTCHAR 060
ENCODING 60
SWIDTH 648 0
DWIDTH 9 0
BBX 7 7 1 1
BITMAP
06
18
60
80
60
18
06
ENDCHAR
STARTCHAR 061
ENCODING 61
SWIDTH 648 0
DWIDTH 9 0
BBX 7 5 1 2
BITMAP
FE
00
00
00
FE
ENDCHAR
STARTCHAR 062
ENCODING 62
SWIDTH 648 0
DWIDTH 9 0
BBX 7 7 1 1
BITMAP
C0
30
0C
02
0C
30
C0
ENDCHAR
STARTCHAR 063
ENCODING 63
SWIDTH 648 0
DWIDTH 9 0
BBX 5 9 2 0
BITMAP
70
88
88
08
10
20
20
00
20
ENDCHAR
STARTCHAR 064
ENCODING 64
SWIDTH 648 0
DWIDTH 9 0
BBX 8 11 1 -2
BITMAP
3C
42
9D
A5
A5
A5
A5
9A
80
42
3C
ENDCHAR
STARTCHAR 065
ENCODING 65
SWIDTH 648 0
DWIDTH 9 0
BBX 7 9 1 0
BITMAP
10
10
28
28
28
7C
44
82
82
ENDCHAR
STARTCHAR 066
ENCODING 66
SWIDTH 648 0
DWIDTH 9 0
BBX 6 9 1 0
BITMAP
F8
84
84
84
F8
84
84
84
F8
ENDCHAR
STARTCHAR 067
ENCODING 67
SWIDTH 648 0
DWIDTH 9 0
BBX 6 9 1 0
BITMAP
78
84
80
80
80
80
80
84
78
ENDCHAR
STARTCHAR 068
ENCODING 68
SWIDTH 648 0
DWIDTH 9 0
BBX 5 9 2 0
BITMAP
F0
88
88
88
88
88
88
88
F0
ENDCHAR
STARTCHAR 069
ENCODING 69
SWIDTH 648 0
DWIDTH 9 0
BBX 5 9 2 0
BITMAP
F8
80
80
80
F8
80
80
80
F8
ENDCHAR
STARTCHAR 070
ENCODING 70
SWIDTH 648 0
DWIDTH 9 0
BBX 5 9 2 0
BITMAP
F8
80
80
80
F8
80
80
80
80
ENDCHAR
STARTCHAR 071
ENCODING 71
SWIDTH 648 0
DWIDTH 9 0
BBX 7 9 1 0
BITMAP
7C
82
80
80
9E
82
82
82
7C
ENDCHAR
STARTCHAR 072
ENCODING 72
SWIDTH 648 0
DWIDTH 9 0
BBX 6 9 1 0
BITMAP
84
84
84
84
FC
84
84
84
84
ENDCHAR
STARTCHAR 073
ENCODING 73
SWIDTH 648 0
DWIDTH 9 0
BBX 5 9 2 0
BITMAP
F8
20
20
20
20
20
20
20
F8
ENDCHAR
STARTCHAR 074
ENCODING 74
SWIDTH 648 0
DWIDTH 9 0
BBX 5 9 2 0
BITMAP
08
08
08
08
08
08
88
88
70
ENDCHAR
STARTCHAR 075
ENCODING 75
SWIDTH 648 0
DWIDTH 9 0
BBX 5 9 2 0
BITMAP
88
90
90
A0
C0
A0
90
90
88
ENDCHAR
STARTCHAR 076
ENCODING 76
SWIDTH 648 0
DWIDTH 9 0
BBX 5 9 2 0
BITMAP
80
80
80
80
80
80
80
80
F8
ENDCHAR
STARTCHAR 077
ENCODING 77
SWIDTH 648 0
DWIDTH 9 0
BBX 7 9 1 0
BITMAP
82
82
C6
C6
AA
AA
AA
92
92
ENDCHAR
STARTCHAR 078
ENCODING 78
SWIDTH 648 0
DWIDTH 9 0
BBX 6 9 1 0
BITMAP
84
C4
C4
A4
A4
94
94
8C
8C
ENDCHAR
STARTCHAR 079
ENCODING 79
SWIDTH 648 0
DWIDTH 9 0
BBX 6 9 1 0
BITMAP
78
84
84
84
84
84
84
84
78
ENDCHAR
STARTCHAR 080
ENCODING 80
SWIDTH 648 0
DWIDTH 9 0
BBX 5 9 2 0
BITMAP
F0
88
88
88
F0
80
80
80
80
ENDCHAR
STARTCHAR 081
ENCODING 81
SWIDTH 648 0
DWIDTH 9 0
BBX 7 10 1 -1
BITMAP
78
84
84
84
84
84
94
8C
7C
02
ENDCHAR
STARTCHAR 082
ENCODING 82
SWIDTH 648 0
DWIDTH 9 0
BBX 5 9 2 0
BITMAP
F0
88
88
88
F0
C0
A0
90
88
ENDCHAR
STARTCHAR 083
ENCODING 83
SWIDTH 648 0
DWIDTH 9 0
BBX 6 9 1 0
BITMAP
78
84
80
80
78
04
04
84
78
ENDCHAR
STARTCHAR 084
ENCODING 84
SWIDTH 648 0
DWIDTH 9 0
BBX 7 9 1 0
BITMAP
FE
10
10
10
10
10
10
10
10
ENDCHAR
STARTCHAR 085
ENCODING 85
SWIDTH 648 0
DWIDTH 9 0
BBX 7 9 1 0
BITMAP
82
82
82
82
82
82
82
82
7C
ENDCHAR
STARTCHAR 086
ENCODING 86
SWIDTH 648 0
DWIDTH 9 0
BBX 7 9 1 0
BITMAP
82
82
44
44
24
28
28
10
10
ENDCHAR
STARTCHAR 087
ENCODING 87
SWIDTH 648 0
DWIDTH 9 0
BBX 7 9 1 0
BITMAP
82
82
44
54
54
54
28
28
28
ENDCHAR
STARTCHAR 088
ENCODING 88
SWIDTH 648 0
DWIDTH 9 0
BBX 7 9 1 0
BITMAP
82
44
44
28
10
28
44
44
82
ENDCHAR
STARTCHAR 089
ENCODING 89
SWIDTH 648 0
DWIDTH 9 0
BBX 7 9 1 0
BITMAP
82
44
44
28
28
10
10
10
10
ENDCHAR
STARTCHAR 090
ENCODING 90
SWIDTH 648 0
DWIDTH 9 0
BBX 7 9 1 0
BITMAP
FE
02
04
08
10
20
40
80
FE
ENDCHAR
STARTCHAR 091
ENCODING 91
SWIDTH 648 0
DWIDTH 9 0
BBX 3 10 3 -1
BITMAP
E0
80
80
80
80
80
80
80
80
E0
ENDCHAR
STARTCHAR 092
ENCODING 92
SWIDTH 648 0
DWIDTH 9 0
BBX 5 11 2 -2
BITMAP
80
80
40
40
20
20
20
10
10
08
08
ENDCHAR
STARTCHAR 093
ENCODING 93
SWIDTH 648 0
DWIDTH 9 0
BBX 3 10 3 -1
BITMAP
E0
20
20
20
20
20
20
20
20
E0
ENDCHAR
STARTCHAR 094
ENCODING 94
SWIDTH 648 0
DWIDTH 9 0
BBX 7 4 1 5
BITMAP
10
28
44
82
ENDCHAR
STARTCHAR 095
ENCODING 95
SWIDTH 648 0
DWIDTH 9 0
BBX 7 1 1 0
BITMAP
FE
ENDCHAR
STARTCHAR 096
ENCODING 96
SWIDTH 648 0
DWIDTH 9 0
BBX 4 4 2 5
BITMAP
80
40
20
10
ENDCHAR
STARTCHAR 097
ENCODING 97
SWIDTH 648 0
DWIDTH 9 0
BBX 6 7 1 0
BITMAP
70
88
08
78
88
88
7C
ENDCHAR
STARTCHAR 098
ENCODING 98
SWIDTH 648 0
DWIDTH 9 0
BBX 5 9 2 0
BITMAP
80
80
80
80
F0
88
88
88
F0
ENDCHAR
STARTCHAR 099
ENCODING 99
SWIDTH 648 0
DWIDTH 9 0
BBX 5 7 2 0
BITMAP
70
88
80
80
80
88
70
ENDCHAR
STARTCHAR 100
ENCODING 100
SWIDTH 648 0
DWIDTH 9 0
BBX 5 9 2 0
BITMAP
08
08
08
08
78
88
88
88
78
ENDCHAR
STARTCHAR 101
ENCODING 101
SWIDTH 648 0
DWIDTH 9 0
BBX 5 7 2 0
BITMAP
70
88
88
F8
80
88
70
ENDCHAR
STARTCHAR 102
ENCODING 102
SWIDTH 648 0
DWIDTH 9 0
BBX 4 9 3 0
BITMAP
20
50
40
40
E0
40
40
40
40
ENDCHAR
STARTCHAR 103
ENCODING 103
SWIDTH 648 0
DWIDTH 9 0
BBX 5 8 2 -3
BITMAP
70
88
88
88
78
08
88
70
ENDCHAR
STARTCHAR 104
ENCODING 104
SWIDTH 648 0
DWIDTH 9 0
BBX 5 9 2 0
BITMAP
80
80
80
80
F0
88
88
88
88
ENDCHAR
STARTCHAR 105
ENCODING 105
SWIDTH 648 0
DWIDTH 9 0
BBX 1 7 4 0
BITMAP
80
00
80
80
80
80
80
ENDCHAR
STARTCHAR 106
ENCODING 106
SWIDTH 648 0
DWIDTH 9 0
BBX 2 8 3 -1
BITMAP
40
00
40
40
40
40
40
80
ENDCHAR
STARTCHAR 107
ENCODING 107
SWIDTH 648 0
DWIDTH 9 0
BBX 4 9 2 0
BITMAP
80
80
80
80
90
A0
C0
A0
90
ENDCHAR
STARTCHAR 108
ENCODING 108
SWIDTH 648 0
DWIDTH 9 0
BBX 1 9 4 0
BITMAP
80
80
80
80
80
80
80
80
80
ENDCHAR
STARTCHAR 109
ENCODING 109
SWIDTH 648 0
DWIDTH 9 0
BBX 7 7 1 0
BITMAP
EC
92
92
92
92
92
92
ENDCHAR
STARTCHAR 110
ENCODING 110
SWIDTH 648 0
DWIDTH 9 0
BBX 5 7 2 0
BITMAP
F0
88
88
88
88
88
88
ENDCHAR
STARTCHAR 111
ENCODING 111
SWIDTH 648 0
DWIDTH 9 0
BBX 5 7 2 0
BITMAP
70
88
88
88
88
88
70
ENDCHAR
STARTCHAR 112
ENCODING 112
SWIDTH 648 0
DWIDTH 9 0
BBX 5 9 2 -3
BITMAP
F0
88
88
88
88
F0
80
80
80
ENDCHAR
STARTCHAR 113
ENCODING 113
SWIDTH 648 0
DWIDTH 9 0
BBX 5 9 2 -3
BITMAP
78
88
88
88
88
78
08
08
08
ENDCHAR
STARTCHAR 114
ENCODING 114
SWIDTH 648 0
DWIDTH 9 0
BBX 5 7 2 0
BITMAP
B8
C0
80
80
80
80
80
ENDCHAR
STARTCHAR 115
ENCODING 115
SWIDTH 648 0
DWIDTH 9 0
BBX 5 7 2 0
BITMAP
70
88
80
70
08
88
70
ENDCHAR
STARTCHAR 116
ENCODING 116
SWIDTH 648 0
DWIDTH 9 0
BBX 4 9 3 0
BITMAP
40
40
40
E0
40
40
40
50
20
ENDCHAR
STARTCHAR 117
ENCODING 117
SWIDTH 648 0
DWIDTH 9 0
BBX 5 7 2 0
BITMAP
88
88
88
88
88
88
78
ENDCHAR
STARTCHAR 118
ENCODING 118
SWIDTH 648 0
DWIDTH 9 0
BBX 5 7 2 0
BITMAP
88
88
88
50
50
50
20
ENDCHAR
STARTCHAR 119
ENCODING 119
SWIDTH 648 0
DWIDTH 9 0
BBX 7 7 1 0
BITMAP
82
82
82
54
54
54
28
ENDCHAR
STARTCHAR 120
ENCODING 120
SWIDTH 648 0
DWIDTH 9 0
BBX 5 7 2 0
BITMAP
88
88
50
20
50
88
88
ENDCHAR
STARTCHAR 121
ENCODING 121
SWIDTH 648 0
DWIDTH 9 0
BBX 5 9 2 -3
BITMAP
88
88
88
88
88
78
08
88
70
ENDCHAR
STARTCHAR 122
ENCODING 122
SWIDTH 648 0
DWIDTH 9 0
BBX 5 7 2 0
BITMAP
F8
08
10
20
40
80
F8
ENDCHAR
STARTCHAR 123
ENCODING 123
SWIDTH 648 0
DWIDTH 9 0
BBX 4 11 2 -2
BITMAP
30
40
40
40
40
80
40
40
40
40
30
ENDCHAR
STARTCHAR 124
ENCODING 124
SWIDTH 648 0
DWIDTH 9 0
BBX 1 11 4 -2
BITMAP
80
80
80
80
80
80
80
80
80
80
80
ENDCHAR
STARTCHAR 125
ENCODING 125
SWIDTH 648 0
DWIDTH 9 0
BBX 4 11 2 -2
BITMAP
C0
20
20
20
20
10
20
20
20
20
C0
ENDCHAR
STARTCHAR 126
ENCODING 126
SWIDTH 648 0
DWIDTH 9 0
BBX 5 3 2 3
BITMAP
48
A8
90
ENDCHAR
STARTCHAR 127
ENCODING 127
SWIDTH 648 0
DWIDTH 9 0
BBX 9 12 0 -3
BITMAP
7F00
FF80
FF80
FF80
FF80
FF80
FF80
FF80
FF80
FF80
FF80
7F00
ENDCHAR
STARTCHAR 167
ENCODING 167
SWIDTH 648 0
DWIDTH 9 0
BBX 5 11 2 -2
BITMAP
70
88
80
70
88
88
88
70
08
88
70
ENDCHAR
STARTCHAR 171
ENCODING 171
SWIDTH 648 0
DWIDTH 9 0
BBX 6 5 1 2
BITMAP
24
48
90
48
24
ENDCHAR
STARTCHAR 176
ENCODING 176
SWIDTH 648 0
DWIDTH 9 0
BBX 5 5 2 4
BITMAP
70
88
88
88
70
ENDCHAR
STARTCHAR 177
ENCODING 177
SWIDTH 648 0
DWIDTH 9 0
BBX 5 7 2 1
BITMAP
20
20
F8
20
20
00
F8
ENDCHAR
STARTCHAR 187
ENCODING 187
SWIDTH 648 0
DWIDTH 9 0
BBX 6 5 1 2
BITMAP
90
48
24
48
90
ENDCHAR
STARTCHAR 913
ENCODING 913
SWIDTH 648 0
DWIDTH 9 0
BBX 7 9 1 0
BITMAP
10
10
28
28
28
7C
44
82
82
ENDCHAR
STARTCHAR 914
ENCODING 914
SWIDTH 648 0
DWIDTH 9 0
BBX 6 9 1 0
BITMAP
F8
84
84
84
F8
84
84
84
F8
ENDCHAR
STARTCHAR 915
ENCODING 915
SWIDTH 648 0
DWIDTH 9 0
BBX 7 9 1 0
BITMAP
FE
80
80
80
80
80
80
80
80
ENDCHAR
STARTCHAR 916
ENCODING 916
SWIDTH 648 0
DWIDTH 9 0
BBX 7 9 1 0
BITMAP
10
10
28
28
28
44
44
82
FE
ENDCHAR
STARTCHAR 917
ENCODING 917
SWIDTH 648 0
DWIDTH 9 0
BBX 6 9 1 0
BITMAP
FC
80
80
80
FC
80
80
80
FC
ENDCHAR
STARTCHAR 918
ENCODING 918
SWIDTH 648 0
DWIDTH 9 0
BBX 7 9 1 0
BITMAP
FE
02
04
08
10
20
40
80
FE
ENDCHAR
STARTCHAR 919
ENCODING 919
SWIDTH 648 0
DWIDTH 9 0
BBX 7 9 1 0
BITMAP
82
82
82
82
FE
82
82
82
82
ENDCHAR
STARTCHAR 920
ENCODING 920
SWIDTH 648 0
DWIDTH 9 0
BBX 7 9 1 0
BITMAP
7C
82
82
82
BA
82
82
82
7C
ENDCHAR
STARTCHAR 921
ENCODING 921
SWIDTH 648 0
DWIDTH 9 0
BBX 1 9 4 0
BITMAP
80
80
80
80
80
80
80
80
80
ENDCHAR
STARTCHAR 922
ENCODING 922
SWIDTH 648 0
DWIDTH 9 0
BBX 6 9 1 0
BITMAP
84
88
90
A0
C0
A0
90
88
84
ENDCHAR
STARTCHAR 923
ENCODING 923
SWIDTH 648 0
DWIDTH 9 0
BBX 7 9 1 0
BITMAP
10
10
28
28
28
44
44
82
82
ENDCHAR
STARTCHAR 924
ENCODING 924
SWIDTH 648 0
DWIDTH 9 0
BBX 7 9 1 0
BITMAP
82
82
C6
C6
AA
AA
92
92
92
ENDCHAR
STARTCHAR 925
ENCODING 925
SWIDTH 648 0
DWIDTH 9 0
BBX 6 9 1 0
BITMAP
84
C4
C4
A4
A4
94
94
8C
8C
ENDCHAR
STARTCHAR 926
ENCODING 926
SWIDTH 648 0
DWIDTH 9 0
BBX 7 9 1 0
BITMAP
FE
00
00
00
7C
00
00
00
FE
ENDCHAR
STARTCHAR 927
ENCODING 927
SWIDTH 648 0
DWIDTH 9 0
BBX 7 9 1 0
BITMAP
38
44
82
82
82
82
82
44
38
ENDCHAR
STARTCHAR 928
ENCODING 928
SWIDTH 648 0
DWIDTH 9 0
BBX 7 9 1 0
BITMAP
FE
82
82
82
82
82
82
82
82
ENDCHAR
STARTCHAR 929
ENCODING 929
SWIDTH 648 0
DWIDTH 9 0
BBX 6 9 1 0
BITMAP
F8
84
84
84
F8
80
80
80
80
ENDCHAR
STARTCHAR 931
ENCODING 931
SWIDTH 648 0
DWIDTH 9 0
BBX 7 9 1 0
BITMAP
FE
80
40
20
10
20
40
80
FE
ENDCHAR
STARTCHAR 932
ENCODING 932
SWIDTH 648 0
DWIDTH 9 0
BBX 7 9 1 0
BITMAP
FE
10
10
10
10
10
10
10
10
ENDCHAR
STARTCHAR 933
ENCODING 933
SWIDTH 648 0
DWIDTH 9 0
BBX 7 9 1 0
BITMAP
82
44
44
28
28
10
10
10
10
ENDCHAR
STARTCHAR 934
ENCODING 934
SWIDTH 648 0
DWIDTH 9 0
BBX 7 9 1 0
BITMAP
10
7C
92
92
92
92
92
7C
10
ENDCHAR
STARTCHAR 935
ENCODING 154
SWIDTH 648 0
DWIDTH 9 0
BBX 7 9 1 0
BITMAP
82
44
44
28
10
28
44
44
82
ENDCHAR
STARTCHAR 936
ENCODING 936
SWIDTH 648 0
DWIDTH 9 0
BBX 7 9 1 0
BITMAP
92
92
92
92
7C
10
10
10
10
ENDCHAR
STARTCHAR 937
ENCODING 937
SWIDTH 648 0
DWIDTH 9 0
BBX 7 9 1 0
BITMAP
38
44
82
82
82
82
44
28
EE
ENDCHAR
STARTCHAR 945
ENCODING 945
SWIDTH 648 0
DWIDTH 9 0
BBX 7 7 1 0
BITMAP
72
8C
84
84
84
8C
72
ENDCHAR
STARTCHAR 946
ENCODING 946
SWIDTH 648 0
DWIDTH 9 0
BBX 5 10 2 -3
BITMAP
70
88
88
90
88
88
C8
B0
80
80
ENDCHAR
STARTCHAR 947
ENCODING 947
SWIDTH 648 0
DWIDTH 9 0
BBX 7 9 1 -2
BITMAP
82
82
44
44
28
28
10
10
10
ENDCHAR
STARTCHAR 948
ENCODING 948
SWIDTH 648 0
DWIDTH 9 0
BBX 7 9 1 0
BITMAP
FE
40
20
78
84
84
84
84
78
ENDCHAR
STARTCHAR 949
ENCODING 949
SWIDTH 648 0
DWIDTH 9 0
BBX 5 7 2 0
BITMAP
70
88
80
60
80
88
70
ENDCHAR
STARTCHAR 950
ENCODING 950
SWIDTH 648 0
DWIDTH 9 0
BBX 6 11 1 -2
BITMAP
FC
0C
10
20
40
80
80
80
78
04
18
ENDCHAR
STARTCHAR 951
ENCODING 951
SWIDTH 648 0
DWIDTH 9 0
BBX 6 9 1 -2
BITMAP
F8
84
84
84
84
84
84
04
04
ENDCHAR
STARTCHAR 952
ENCODING 952
SWIDTH 648 0
DWIDTH 9 0
BBX 5 9 2 0
BITMAP
70
88
88
88
F8
88
88
88
70
ENDCHAR
STARTCHAR 953
ENCODING 953
SWIDTH 648 0
DWIDTH 9 0
BBX 1 7 4 0
BITMAP
80
80
80
80
80
80
80
ENDCHAR
STARTCHAR 954
ENCODING 954
SWIDTH 648 0
DWIDTH 9 0
BBX 5 7 2 0
BITMAP
88
90
A0
C0
A0
90
88
ENDCHAR
STARTCHAR 955
ENCODING 955
SWIDTH 648 0
DWIDTH 9 0
BBX 5 9 2 0
BITMAP
80
40
40
20
20
50
50
88
88
ENDCHAR
STARTCHAR 956
ENCODING 956
SWIDTH 648 0
DWIDTH 9 0
BBX 6 10 1 -3
BITMAP
84
84
84
84
84
84
F8
80
80
80
ENDCHAR
STARTCHAR 957
ENCODING 957
SWIDTH 648 0
DWIDTH 9 0
BBX 7 7 1 0
BITMAP
82
82
44
44
28
28
10
ENDCHAR
STARTCHAR 958
ENCODING 958
SWIDTH 648 0
DWIDTH 9 0
BBX 6 11 2 -2
BITMAP
78
80
80
78
80
80
80
80
78
04
18
ENDCHAR
STARTCHAR 959
ENCODING 959
SWIDTH 648 0
DWIDTH 9 0
BBX 7 7 1 0
BITMAP
38
44
82
82
82
44
38
ENDCHAR
STARTCHAR 960
ENCODING 960
SWIDTH 648 0
DWIDTH 9 0
BBX 7 7 1 0
BITMAP
7E
A4
24
24
24
24
26
ENDCHAR
STARTCHAR 961
ENCODING 961
SWIDTH 648 0
DWIDTH 9 0
BBX 6 9 1 -3
BITMAP
78
84
84
84
C4
B8
80
80
80
ENDCHAR
STARTCHAR 962
ENCODING 962
SWIDTH 648 0
DWIDTH 9 0
BBX 6 9 1 -2
BITMAP
78
84
80
80
80
80
78
04
18
ENDCHAR
STARTCHAR 963
ENCODING 963
SWIDTH 648 0
DWIDTH 9 0
BBX 7 7 1 0
BITMAP
3E
48
84
84
84
48
30
ENDCHAR
STARTCHAR 964
ENCODING 964
SWIDTH 648 0
DWIDTH 9 0
BBX 7 7 1 0
BITMAP
7E
90
10
10
10
10
18
ENDCHAR
STARTCHAR 965
ENCODING 965
SWIDTH 648 0
DWIDTH 9 0
BBX 6 6 1 0
BITMAP
C8
44
44
44
44
38
ENDCHAR
STARTCHAR 966
ENCODING 966
SWIDTH 648 0
DWIDTH 9 0
BBX 7 10 1 -3
BITMAP
5C
92
92
92
92
92
7C
10
10
10
ENDCHAR
STARTCHAR 967
ENCODING 967
SWIDTH 648 0
DWIDTH 9 0
BBX 7 9 1 -3
BITMAP
C4
44
44
28
10
28
44
44
46
ENDCHAR
STARTCHAR 968
ENCODING 968
SWIDTH 648 0
DWIDTH 9 0
BBX 7 10 1 -3
BITMAP
10
10
92
92
92
92
7C
10
10
10
ENDCHAR
STARTCHAR 969
ENCODING 969
SWIDTH 648 0
DWIDTH 9 0
BBX 7 6 1 0
BITMAP
44
82
92
92
92
6C
ENDCHAR
STARTCHAR 1025
ENCODING 1025
SWIDTH 648 0
DWIDTH 9 0
BBX 5 9 2 0
BITMAP
88
00
F8
80
80
F8
80
80
F8
ENDCHAR
STARTCHAR 1028
ENCODING 1028
SWIDTH 648 0
DWIDTH 9 0
BBX 7 9 1 0
BITMAP
7C
82
80
80
F0
80
80
82
7C
ENDCHAR
STARTCHAR 1030
ENCODING 1030
SWIDTH 648 0
DWIDTH 9 0
BBX 3 9 3 0
BITMAP
E0
40
40
40
40
40
40
40
E0
ENDCHAR
STARTCHAR 1031
ENCODING 1031
SWIDTH 648 0
DWIDTH 9 0
BBX 3 9 3 0
BITMAP
A0
00
E0
40
40
40
40
40
E0
ENDCHAR
STARTCHAR 1040
ENCODING 1040
SWIDTH 648 0
DWIDTH 9 0
BBX 7 9 1 0
BITMAP
10
10
28
28
28
7C
44
82
82
ENDCHAR
STARTCHAR 1041
ENCODING 1041
SWIDTH 648 0
DWIDTH 9 0
BBX 6 9 1 0
BITMAP
FC
80
80
F8
84
84
84
84
F8
ENDCHAR
STARTCHAR 1042
ENCODING 1042
SWIDTH 648 0
DWIDTH 9 0
BBX 6 9 1 0
BITMAP
F8
84
84
84
F8
84
84
84
F8
ENDCHAR
STARTCHAR 1043
ENCODING 1043
SWIDTH 648 0
DWIDTH 9 0
BBX 6 9 1 0
BITMAP
FC
80
80
80
80
80
80
80
80
ENDCHAR
STARTCHAR 1044
ENCODING 1044
SWIDTH 648 0
DWIDTH 9 0
BBX 7 10 1 -1
BITMAP
10
10
28
28
28
44
44
44
FE
82
ENDCHAR
STARTCHAR 1045
ENCODING 1045
SWIDTH 648 0
DWIDTH 9 0
BBX 6 9 1 0
BITMAP
FC
80
80
80
FC
80
80
80
FC
ENDCHAR
STARTCHAR 1046
ENCODING 1046
SWIDTH 648 0
DWIDTH 9 0
BBX 7 9 1 0
BITMAP
D6
54
54
54
7C
54
54
54
D6
ENDCHAR
STARTCHAR 1047
ENCODING 1047
SWIDTH 648 0
DWIDTH 9 0
BBX 5 9 2 0
BITMAP
70
88
08
08
30
08
08
88
70
ENDCHAR
STARTCHAR 1048
ENCODING 1048
SWIDTH 648 0
DWIDTH 9 0
BBX 7 9 1 0
BITMAP
82
86
8A
8A
92
A2
A2
C2
82
ENDCHAR
STARTCHAR 1049
ENCODING 1049
SWIDTH 648 0
DWIDTH 9 0
BBX 5 9 2 0
BITMAP
88
70
88
98
98
A8
A8
C8
C8
ENDCHAR
STARTCHAR 1050
ENCODING 1050
SWIDTH 648 0
DWIDTH 9 0
BBX 6 9 1 0
BITMAP
84
88
90
A0
C0
A0
90
88
84
ENDCHAR
STARTCHAR 1051
ENCODING 1051
SWIDTH 648 0
DWIDTH 9 0
BBX 7 9 1 0
BITMAP
7E
42
42
42
42
42
42
42
C2
ENDCHAR
STARTCHAR 1052
ENCODING 1052
SWIDTH 648 0
DWIDTH 9 0
BBX 7 9 1 0
BITMAP
82
82
C6
C6
AA
AA
92
92
92
ENDCHAR
STARTCHAR 1053
ENCODING 1053
SWIDTH 648 0
DWIDTH 9 0
BBX 6 9 1 0
BITMAP
84
84
84
84
FC
84
84
84
84
ENDCHAR
STARTCHAR 1054
ENCODING 1054
SWIDTH 648 0
DWIDTH 9 0
BBX 7 9 1 0
BITMAP
38
44
82
82
82
82
82
44
38
ENDCHAR
STARTCHAR 1055
ENCODING 1055
SWIDTH 648 0
DWIDTH 9 0
BBX 7 9 1 0
BITMAP
FE
82
82
82
82
82
82
82
82
ENDCHAR
STARTCHAR 1056
ENCODING 1056
SWIDTH 648 0
DWIDTH 9 0
BBX 6 9 1 0
BITMAP
F8
84
84
84
F8
80
80
80
80
ENDCHAR
STARTCHAR 1057
ENCODING 1057
SWIDTH 648 0
DWIDTH 9 0
BBX 6 9 1 0
BITMAP
78
84
80
80
80
80
80
84
78
ENDCHAR
STARTCHAR 1058
ENCODING 1058
SWIDTH 648 0
DWIDTH 9 0
BBX 7 9 1 0
BITMAP
FE
10
10
10
10
10
10
10
10
ENDCHAR
STARTCHAR 1059
ENCODING 1059
SWIDTH 648 0
DWIDTH 9 0
BBX 7 9 1 0
BITMAP
82
44
44
28
10
20
40
40
80
ENDCHAR
STARTCHAR 1060
ENCODING 1060
SWIDTH 648 0
DWIDTH 9 0
BBX 7 9 1 0
BITMAP
10
7C
92
92
92
92
92
7C
10
ENDCHAR
STARTCHAR 1061
ENCODING 1061
SWIDTH 648 0
DWIDTH 9 0
BBX 7 9 1 0
BITMAP
82
44
44
28
10
28
44
44
82
ENDCHAR
STARTCHAR 1062
ENCODING 1062
SWIDTH 648 0
DWIDTH 9 0
BBX 7 10 1 -1
BITMAP
84
84
84
84
84
84
84
84
FE
02
ENDCHAR
STARTCHAR 1063
ENCODING 1063
SWIDTH 648 0
DWIDTH 9 0
BBX 6 9 1 0
BITMAP
84
84
84
84
7C
04
04
04
04
ENDCHAR
STARTCHAR 1064
ENCODING 1064
SWIDTH 648 0
DWIDTH 9 0
BBX 7 9 1 0
BITMAP
92
92
92
92
92
92
92
92
FE
ENDCHAR
STARTCHAR 1065
ENCODING 1065
SWIDTH 648 0
DWIDTH 9 0
BBX 8 10 1 -1
BITMAP
92
92
92
92
92
92
92
92
FF
01
ENDCHAR
STARTCHAR 1066
ENCODING 1066
SWIDTH 648 0
DWIDTH 9 0
BBX 7 9 1 0
BITMAP
E0
20
20
20
3C
22
22
22
3C
ENDCHAR
STARTCHAR 1067
ENCODING 1067
SWIDTH 648 0
DWIDTH 9 0
BBX 7 9 1 0
BITMAP
82
82
82
82
F2
8A
8A
8A
F2
ENDCHAR
STARTCHAR 1068
ENCODING 1068
SWIDTH 648 0
DWIDTH 9 0
BBX 5 9 2 0
BITMAP
80
80
80
80
F0
88
88
88
F0
ENDCHAR
STARTCHAR 1069
ENCODING 1069
SWIDTH 648 0
DWIDTH 9 0
BBX 7 9 1 0
BITMAP
7C
82
02
02
3E
02
02
82
7C
ENDCHAR
STARTCHAR 1070
ENCODING 1070
SWIDTH 648 0
DWIDTH 9 0
BBX 7 9 1 0
BITMAP
9C
A2
A2
A2
E2
A2
A2
A2
9C
ENDCHAR
STARTCHAR 1071
ENCODING 1071
SWIDTH 648 0
DWIDTH 9 0
BBX 5 9 2 0
BITMAP
78
88
88
88
78
18
28
48
88
ENDCHAR
STARTCHAR 1072
ENCODING 1072
SWIDTH 648 0
DWIDTH 9 0
BBX 6 7 1 0
BITMAP
70
88
08
78
88
88
7C
ENDCHAR
STARTCHAR 1073
ENCODING 1073
SWIDTH 648 0
DWIDTH 9 0
BBX 8 9 1 0
BITMAP
0F
08
08
78
88
88
88
88
70
ENDCHAR
STARTCHAR 1074
ENCODING 1074
SWIDTH 648 0
DWIDTH 9 0
BBX 5 7 2 0
BITMAP
F0
88
88
F0
88
88
F0
ENDCHAR
STARTCHAR 1075
ENCODING 1075
SWIDTH 648 0
DWIDTH 9 0
BBX 5 7 2 0
BITMAP
F8
80
80
80
80
80
80
ENDCHAR
STARTCHAR 1076
ENCODING 1076
SWIDTH 648 0
DWIDTH 9 0
BBX 7 8 1 -1
BITMAP
38
44
44
44
44
44
FE
82
ENDCHAR
STARTCHAR 1077
ENCODING 1077
SWIDTH 648 0
DWIDTH 9 0
BBX 5 7 2 0
BITMAP
70
88
88
F8
80
88
70
ENDCHAR
STARTCHAR 1078
ENCODING 1078
SWIDTH 648 0
DWIDTH 9 0
BBX 7 7 1 0
BITMAP
D6
54
54
7C
54
54
D6
ENDCHAR
STARTCHAR 1079
ENCODING 1079
SWIDTH 648 0
DWIDTH 9 0
BBX 5 7 2 0
BITMAP
70
88
08
30
08
88
70
ENDCHAR
STARTCHAR 1080
ENCODING 1080
SWIDTH 648 0
DWIDTH 9 0
BBX 5 6 2 0
BITMAP
88
98
A8
A8
C8
88
ENDCHAR
STARTCHAR 1081
ENCODING 1081
SWIDTH 648 0
DWIDTH 9 0
BBX 5 9 2 0
BITMAP
88
70
00
88
98
A8
A8
C8
88
ENDCHAR
STARTCHAR 1082
ENCODING 1082
SWIDTH 648 0
DWIDTH 9 0
BBX 5 7 2 0
BITMAP
88
90
A0
C0
A0
90
88
ENDCHAR
STARTCHAR 1083
ENCODING 1083
SWIDTH 648 0
DWIDTH 9 0
BBX 6 7 1 0
BITMAP
7C
44
44
44
44
44
C4
ENDCHAR
STARTCHAR 1084
ENCODING 1084
SWIDTH 648 0
DWIDTH 9 0
BBX 7 7 1 0
BITMAP
82
C6
C6
AA
AA
92
92
ENDCHAR
STARTCHAR 1085
ENCODING 1085
SWIDTH 648 0
DWIDTH 9 0
BBX 5 7 2 0
BITMAP
88
88
88
F8
88
88
88
ENDCHAR
STARTCHAR 1086
ENCODING 1086
SWIDTH 648 0
DWIDTH 9 0
BBX 7 7 1 0
BITMAP
38
44
82
82
82
44
38
ENDCHAR
STARTCHAR 1087
ENCODING 1087
SWIDTH 648 0
DWIDTH 9 0
BBX 5 7 2 0
BITMAP
F8
88
88
88
88
88
88
ENDCHAR
STARTCHAR 1088
ENCODING 1088
SWIDTH 648 0
DWIDTH 9 0
BBX 5 7 2 0
BITMAP
F0
88
88
F0
80
80
80
ENDCHAR
STARTCHAR 1089
ENCODING 1089
SWIDTH 648 0
DWIDTH 9 0
BBX 5 7 2 0
BITMAP
70
88
80
80
80
88
70
ENDCHAR
STARTCHAR 1090
ENCODING 1090
SWIDTH 648 0
DWIDTH 9 0
BBX 5 7 2 0
BITMAP
F8
20
20
20
20
20
20
ENDCHAR
STARTCHAR 1091
ENCODING 1091
SWIDTH 648 0
DWIDTH 9 0
BBX 5 7 2 0
BITMAP
88
88
50
20
40
80
80
ENDCHAR
STARTCHAR 1092
ENCODING 1092
SWIDTH 648 0
DWIDTH 9 0
BBX 7 10 1 -3
BITMAP
10
7C
92
92
92
92
7C
10
10
10
ENDCHAR
STARTCHAR 1093
ENCODING 1093
SWIDTH 648 0
DWIDTH 9 0
BBX 5 7 2 0
BITMAP
88
88
50
20
50
88
88
ENDCHAR
STARTCHAR 1094
ENCODING 1094
SWIDTH 648 0
DWIDTH 9 0
BBX 6 8 2 -1
BITMAP
88
88
88
88
88
88
FC
04
ENDCHAR
STARTCHAR 1095
ENCODING 1095
SWIDTH 648 0
DWIDTH 9 0
BBX 5 7 2 0
BITMAP
88
88
88
78
08
08
08
ENDCHAR
STARTCHAR 1096
ENCODING 1096
SWIDTH 648 0
DWIDTH 9 0
BBX 5 7 2 0
BITMAP
A8
A8
A8
A8
A8
A8
F8
ENDCHAR
STARTCHAR 1097
ENCODING 1097
SWIDTH 648 0
DWIDTH 9 0
BBX 6 8 2 -1
BITMAP
A8
A8
A8
A8
A8
A8
FC
04
ENDCHAR
STARTCHAR 1098
ENCODING 1098
SWIDTH 648 0
DWIDTH 9 0
BBX 5 7 2 0
BITMAP
C0
40
40
70
48
48
70
ENDCHAR
STARTCHAR 1099
ENCODING 1099
SWIDTH 648 0
DWIDTH 9 0
BBX 6 7 1 0
BITMAP
84
84
84
E4
94
94
E4
ENDCHAR
STARTCHAR 1100
ENCODING 1100
SWIDTH 648 0
DWIDTH 9 0
BBX 4 7 3 0
BITMAP
80
80
80
E0
90
90
E0
ENDCHAR
STARTCHAR 1101
ENCODING 1101
SWIDTH 648 0
DWIDTH 9 0
BBX 5 7 2 0
BITMAP
70
88
08
38
08
88
70
ENDCHAR
STARTCHAR 1102
ENCODING 1102
SWIDTH 648 0
DWIDTH 9 0
BBX 7 7 1 0
BITMAP
8C
92
92
F2
92
92
8C
ENDCHAR
STARTCHAR 1103
ENCODING 1103
SWIDTH 648 0
DWIDTH 9 0
BBX 4 7 2 0
BITMAP
70
90
90
70
30
50
90
ENDCHAR
STARTCHAR 1105
ENCODING 1105
SWIDTH 648 0
DWIDTH 9 0
BBX 5 9 2 0
BITMAP
88
00
70
88
88
F8
80
88
70
ENDCHAR
STARTCHAR 1108
ENCODING 1108
SWIDTH 648 0
DWIDTH 9 0
BBX 5 7 2 0
BITMAP
70
88
80
E0
80
88
70
ENDCHAR
STARTCHAR 1110
ENCODING 1110
SWIDTH 648 0
DWIDTH 9 0
BBX 1 7 4 0
BITMAP
80
00
80
80
80
80
80
ENDCHAR
STARTCHAR 1111
ENCODING 1111
SWIDTH 648 0
DWIDTH 9 0
BBX 3 7 3 0
BITMAP
A0
00
40
40
40
40
40
ENDCHAR
STARTCHAR 1168
ENCODING 1168
SWIDTH 648 0
DWIDTH 9 0
BBX 5 9 2 0
BITMAP
08
F8
80
80
80
80
80
80
80
ENDCHAR
STARTCHAR 1169
ENCODING 1169
SWIDTH 648 0
DWIDTH 9 0
BBX 5 7 2 0
BITMAP
08
F8
80
80
80
80
80
ENDCHAR
ENDFONT
